PathFileType	4	(X/Y/Z)	AB05\squats_2.trc
DataRate	CameraRate	NumFrames	NumMarkers	Units	OrigDataRate	OrigDataStartFrame	OrigNumFrames
200.000000	200.000000	4	35	mm	200.000000	126	336
Frame#	Time	C7			LSHO			STRN			LASI			RASI			LPSI			RPSI			LGTR			RGTR			LTHC			LTHL			LTHR			LKNE			LMKNE			LSHC			LSHL			LSHR			LANK			LMANK			LMT1			LMT5			LCAL			RTHC			RTHL			RTHR			RKNE			RMKNE			RSHC			RSHL			RSHR			RANK			RMANK			RMT1			RMT5			RCAL			
		X1	Y1	Z1	X2	Y2	Z2	X3	Y3	Z3	X4	Y4	Z4	X5	Y5	Z5	X6	Y6	Z6	X7	Y7	Z7	X8	Y8	Z8	X9	Y9	Z9	X10	Y10	Z10	X11	Y11	Z11	X12	Y12	Z12	X13	Y13	Z13	X14	Y14	Z14	X15	Y15	Z15	X16	Y16	Z16	X17	Y17	Z17	X18	Y18	Z18	X19	Y19	Z19	X20	Y20	Z20	X21	Y21	Z21	X22	Y22	Z22	X23	Y23	Z23	X24	Y24	Z24	X25	Y25	Z25	X26	Y26	Z26	X27	Y27	Z27	X28	Y28	Z28	X29	Y29	Z29	X30	Y30	Z30	X31	Y31	Z31	X32	Y32	Z32	X33	Y33	Z33	X34	Y34	Z34	X35	Y35	Z35	

127	1.54	-2155.519593186561	1034.279784492758	2506.603417796515	-2073.259542517983	950.6457363406925	2383.750236386449	-2101.747737284361	877.529813223118	2509.070400632009	-2467.847607968617	675.1640245067669	2374.4429611162	-2450.285788722926	659.74144076507	2633.172142348974	-2604.824229863344	767.4058723734744	2451.001516047263	-2578.853199043424	771.5301417773118	2567.758144184439	-2531.234593489241	653.2547123660382	2292.510965690917	-2554.824291240805	646.6537804604984	2706.112748977769	-2391.643514225519	666.3973952175076	2368.611219631347	-2496.731699857463	511.3040206570899	2334.832487205056	-2431.481434598994	627.0007684458118	2297.170762989584	-2193.244468338709	487.4641337154251	2272.369522918263	-2176.303920814801	482.3263590640965	2399.265955271229	-2292.946688618926	384.5184799935384	2280.243116131325	-2231.910031982408	234.9152253344859	2314.500848948627	-2218.6963102631	317.6254902111979	2384.998824814877	-2354.143671861195	110.3447546744605	2291.301343100775	-2323.914784316339	108.8763525411523	2384.913753466117	-2198.900349584643	64.2403075870899	2350.877931492943	-2248.716425381113	54.91804477042915	2236.043395618734	-2418.744952825461	73.59050296937579	2348.965625180485	-2477.625461499038	496.8961373980137	2674.503696160573	-2422.274771610984	614.1060692929681	2723.201229417562	-2378.295557757854	651.0191575473983	2635.729087722036	-2203.340114568318	478.4313461648301	2748.433309640226	-2159.439509988532	483.7850489555405	2622.022233323552	-2232.765046390229	246.8317707464343	2706.235017656426	-2267.7703068878	396.9597990425263	2746.794540460683	-2203.940334640313	349.9401964245106	2635.459455370905	-2360.941272591514	105.0394007522268	2708.669515871698	-2322.513998378668	107.8091308267947	2618.85063256469	-2209.143706116938	63.58490538786508	2654.435949243022	-2244.938301905541	61.16065587818533	2761.330809735347	-2428.133695423286	75.02339339577459	2654.898189140637	
128	1.545	-2155.348552064919	1032.988028678903	2506.477920703911	-2073.069023650231	949.1919186758196	2383.788206546991	-2101.499814256304	876.1923325685116	2509.03989486909	-2468.294703790228	674.4874998126613	2374.485083742012	-2450.519037354494	659.0386620171934	2633.287066651699	-2605.259311566235	766.5718181051586	2451.137309475293	-2579.161938884651	770.7537072729303	2567.860629251436	-2531.659375950995	652.5159515734207	2292.542747447647	-2555.072924689233	645.9657941145829	2706.222657157888	-2392.162242879712	665.9656858094869	2368.492956224948	-2496.976400876535	510.6348548887631	2334.813690290165	-2431.98999069357	626.5023012210567	2297.123129667294	-2193.506680598875	487.4671988076949	2271.950057509085	-2176.344765089343	482.4032105895381	2398.854787818211	-2293.125681539412	384.4791216687235	2280.005706306399	-2231.964641989333	234.9600283198323	2314.29217890223	-2218.70925317807	317.6970097866183	2384.732503561777	-2354.133456712797	110.334068560709	2291.326710294245	-2323.889089516917	108.8787188800291	2384.907710428872	-2198.90588253468	64.2381921982156	2350.860803764639	-2248.728163631579	54.90462800176674	2236.029808447044	-2418.713918510695	73.61031505410457	2348.99695921504	-2477.717690774825	496.2883453457414	2674.831602506817	-2422.598140877062	613.6417805248381	2723.493117254302	-2378.63925734202	650.4860263737827	2636.00902707496	-2203.409501994373	478.3563413371447	2748.968527909237	-2159.434587165726	483.7842576427351	2622.564637367989	-2232.794902126007	246.8305198329685	2706.491513854355	-2267.821634993064	396.8565509475803	2747.296213213659	-2203.938522562219	350.0201175346764	2635.832330670632	-2360.949190723151	105.0178677601506	2708.701805630087	-2322.543856191536	107.8551366316992	2618.903453192301	-2209.16648399672	63.57223312701647	2654.473038494899	-2244.94746342901	61.16343726424323	2761.36565259694	-2428.130640217249	75.04673016558375	2654.894875234406	
129	1.55	-2155.188803790232	1031.751248647156	2506.364672247998	-2072.891577404513	947.8022906624303	2383.835165740355	-2101.277582183007	874.9131041000671	2509.017038307796	-2468.737164793844	673.8491595191637	2374.523802681284	-2450.743173008826	658.3553018184305	2633.398836976448	-2605.691983368305	765.7700561802956	2451.284814557402	-2579.468503980297	770.003209329221	2567.975622777764	-2532.08900481211	651.8172773927638	2292.578751079227	-2555.312125123626	645.2871831928046	2706.331507560613	-2392.672978225957	665.5615824269953	2368.35280710507	-2497.22753091861	509.9984506562183	2334.77721331033	-2432.503602435594	626.034655643028	2297.061564493465	-2193.78742240043	487.4777239582846	2271.486840535424	-2176.391757786128	482.4890253945117	2398.394480520246	-2293.316592936887	384.4380133702013	2279.721826706074	-2232.027016733256	235.0095001656242	2314.059270598391	-2218.734483153188	317.7825943527673	2384.432617578016	-2354.123692225884	110.3207116735282	2291.341012610136	-2323.862743703567	108.8885381821318	2384.892674599518	-2198.911660145465	64.23651869509146	2350.839349048048	-2248.741119192504	54.88887666923492	2236.010100264218	-2418.684591391593	73.6308581990133	2349.024283615715	-2477.802519280041	495.6958267650936	2675.149668501788	-2422.910993365479	613.1864213356247	2723.779506039686	-2378.969463893622	649.9636593041001	2636.286856111292	-2203.474905954479	478.2795139012431	2749.495773407427	-2159.426164421202	483.7810953058287	2623.099457546598	-2232.823076580847	246.8306555148328	2706.74210546954	-2267.870581197934	396.7537089841657	2747.792727825466	-2203.935748630796	350.0977535514011	2636.200186908662	-2360.956643671552	104.9969162778235	2708.732405668246	-2322.575864041297	107.8993824384054	2618.954845785675	-2209.189615202979	63.55999554390692	2654.50901496077	-2244.957074535759	61.16648590321147	2761.40134383244	-2428.126188187347	75.06973068206877	2654.889225377373	
130	1.555	-2155.040135288362	1030.567448707074	2506.263879150162	-2072.727407789403	946.4753768421241	2383.891220952306	-2101.081686934069	873.6899723123998	2509.001583202624	-2469.174885243008	673.2483085869351	2374.560558415161	-2450.960083502044	657.6920056742825	2633.507789239126	-2606.122266287731	765.0005792453451	2451.443840077488	-2579.773534264556	769.2785485130593	2568.103285594783	-2532.522498791477	651.1586207323833	2292.619566497869	-2555.543510456981	644.617534700484	2706.439568592558	-2393.17564607471	665.1844052706539	2368.19489300277	-2497.484564509845	509.3947609103762	2334.724922568804	-2433.020830560489	625.5973355609311	2296.988865217259	-2194.084853036288	487.4958468613816	2270.986698986688	-2176.445702325077	482.5825693502411	2397.892034456727	-2293.518476794628	384.3956851784291	2279.396627614087	-2232.096541409986	235.0634395996944	2313.805186733279	-2218.771821170009	317.8809858126788	2384.103763525238	-2354.114482692623	110.3049939335071	2291.344810855532	-2323.836016422714	108.9053150597676	2384.869487168343	-2198.917534133525	64.23534846632452	2350.813792211506	-2248.755196430949	54.87103862569182	2235.984776832515	-2418.657177175732	73.65192261698056	2349.047500118708	-2477.880805064298	495.1186390559062	2675.455471306918	-2423.213652889352	612.739750351448	2724.058591472053	-2379.287906889709	649.4527971177909	2636.559982411996	-2203.536272841661	478.2011640126912	2750.008611953799	-2159.416005225894	483.77579479707	2623.620064152381	-2232.849464291724	246.832182145837	2706.983438457668	-2267.91704455643	396.6523371861226	2748.277657299535	-2203.932519686731	350.1722643971729	2636.558200591821	-2360.963543381481	104.976767630891	2708.760859982692	-2322.609457500135	107.9412125822908	2619.004090241029	-2209.21268986049	63.54849666994767	2654.543319504557	-2244.967077362688	61.16982629530133	2761.437376456729	-2428.120460312712	75.09198440826381	2654.881245087881	
